PathFileType	4	(X / Y / Z)	Demo_151852_11_September_2019	Demo_151852_11_September_2019.trc
DataRate	CameraRate	NumFrames	NumMarkers	Units	OrigDataRate	OrigDataStartFrame	OrigNumFrames
50	50	17	25	m	50	567	2071
Frame#	Time		SpineBase		SpineMid		Neck		Head		ShoulderLeft		ElbowLeft		WristLeft		HandLeft		ShoulderRight		ElbowRight		WristRight		HandRight		HipLeft		KneeLeft		AnkleLeft		FootLeft		HipRight		KneeRight		AnkleRight		FootRight		SpineShoulder		HandTipLeft		LeftThumb		HandTipRight		ThumbRight		
X1	Y1	Z1	X2	Y2	Z2	X3	Y3	Z3	X4	Y4	Z4	X5	Y5	Z5	X6	Y6	Z6	X7	Y7	Z7	X8	Y8	Z8	X9	Y9	Z9	X10	Y10	Z10	X11	Y11	Z11	X12	Y12	Z12	X13	Y13	Z13	X14	Y14	Z14	X15	Y15	Z15	X16	Y16	Z16	X17	Y17	Z17	X18	Y18	Z18	X19	Y19	Z19	X20	Y20	Z20	X21	Y21	Z21	X22	Y22	Z22	X23	Y23	Z23	X24	Y24	Z24	X25	Y25	Z25	
518	27.655	0.102	0.748	1.480	0.103	1.032	1.444	0.112	1.307	1.396	0.112	1.452	1.369	-0.037	1.254	1.397	-0.174	1.395	1.325	-0.027	1.524	1.335	0.020	1.516	1.333	0.291	1.208	1.401	0.458	1.042	1.449	0.628	0.894	1.525	0.683	0.833	1.549	0.029	0.759	1.449	-0.035	0.468	1.516	-0.022	0.296	1.567	-0.002	0.283	1.520	0.170	0.748	1.443	0.244	0.464	1.519	0.185	0.281	1.588	0.151	0.277	1.547	0.110	1.240	1.411	0.072	1.539	1.343	0.050	1.484	1.279	0.734	0.751	1.580	0.687	0.785	1.510
519	27.672	0.102	0.748	1.480	0.103	1.032	1.444	0.112	1.307	1.396	0.112	1.452	1.369	-0.037	1.254	1.397	-0.174	1.395	1.325	-0.027	1.524	1.335	0.020	1.516	1.333	0.291	1.208	1.401	0.458	1.042	1.449	0.628	0.894	1.525	0.683	0.833	1.549	0.029	0.759	1.449	-0.035	0.468	1.516	-0.022	0.296	1.567	-0.002	0.283	1.520	0.170	0.748	1.443	0.244	0.464	1.519	0.185	0.281	1.588	0.151	0.277	1.547	0.110	1.240	1.411	0.072	1.539	1.343	0.050	1.484	1.279	0.734	0.751	1.580	0.687	0.785	1.510
520	27.689	0.104	0.747	1.480	0.104	1.032	1.444	0.112	1.307	1.396	0.109	1.452	1.369	-0.038	1.254	1.396	-0.173	1.395	1.322	-0.027	1.522	1.340	0.017	1.515	1.339	0.283	1.202	1.397	0.437	0.992	1.454	0.575	0.814	1.528	0.604	0.759	1.545	0.031	0.758	1.450	-0.031	0.466	1.515	-0.020	0.296	1.566	-0.002	0.283	1.520	0.172	0.747	1.443	0.256	0.466	1.522	0.188	0.280	1.590	0.151	0.278	1.546	0.110	1.240	1.411	0.057	1.542	1.360	0.044	1.480	1.280	0.642	0.663	1.578	0.580	0.709	1.514
521	27.705	0.104	0.747	1.480	0.104	1.032	1.444	0.112	1.307	1.396	0.109	1.452	1.369	-0.038	1.254	1.396	-0.173	1.395	1.322	-0.027	1.522	1.340	0.017	1.515	1.339	0.283	1.202	1.397	0.437	0.992	1.454	0.575	0.814	1.528	0.604	0.759	1.545	0.031	0.758	1.450	-0.031	0.466	1.515	-0.020	0.296	1.566	-0.002	0.283	1.520	0.172	0.747	1.443	0.256	0.466	1.522	0.188	0.280	1.590	0.151	0.278	1.546	0.110	1.240	1.411	0.057	1.542	1.360	0.044	1.480	1.280	0.642	0.663	1.578	0.580	0.709	1.514
522	27.722	0.106	0.746	1.481	0.104	1.032	1.444	0.112	1.307	1.396	0.107	1.451	1.369	-0.038	1.254	1.395	-0.172	1.394	1.320	-0.027	1.520	1.345	0.014	1.513	1.343	0.276	1.196	1.393	0.394	0.942	1.450	0.509	0.773	1.523	0.522	0.704	1.541	0.033	0.757	1.451	-0.027	0.464	1.515	-0.018	0.296	1.566	-0.002	0.283	1.520	0.174	0.746	1.444	0.263	0.468	1.525	0.189	0.280	1.591	0.151	0.278	1.545	0.110	1.240	1.410	0.051	1.542	1.366	0.040	1.477	1.281	0.536	0.601	1.579	0.489	0.641	1.501
523	27.739	0.106	0.746	1.481	0.104	1.032	1.444	0.112	1.307	1.396	0.107	1.451	1.369	-0.038	1.254	1.395	-0.172	1.394	1.320	-0.027	1.520	1.345	0.014	1.513	1.343	0.276	1.196	1.393	0.394	0.942	1.450	0.509	0.773	1.523	0.522	0.704	1.541	0.033	0.757	1.451	-0.027	0.464	1.515	-0.018	0.296	1.566	-0.002	0.283	1.520	0.174	0.746	1.444	0.263	0.468	1.525	0.189	0.280	1.591	0.151	0.278	1.545	0.110	1.240	1.410	0.051	1.542	1.366	0.040	1.477	1.281	0.536	0.601	1.579	0.489	0.641	1.501
524	27.755	0.108	0.744	1.482	0.105	1.032	1.444	0.111	1.307	1.395	0.104	1.451	1.368	-0.039	1.253	1.394	-0.171	1.393	1.318	-0.028	1.519	1.348	0.012	1.512	1.346	0.271	1.192	1.391	0.362	0.915	1.446	0.446	0.739	1.515	0.449	0.667	1.534	0.036	0.755	1.452	-0.024	0.462	1.515	-0.016	0.296	1.565	-0.001	0.283	1.520	0.176	0.745	1.445	0.267	0.468	1.526	0.190	0.279	1.592	0.151	0.279	1.545	0.110	1.240	1.410	0.049	1.542	1.368	0.037	1.475	1.283	0.435	0.566	1.569	0.432	0.607	1.494
525	27.772	0.108	0.744	1.482	0.105	1.032	1.444	0.111	1.307	1.395	0.104	1.451	1.368	-0.039	1.253	1.394	-0.171	1.393	1.318	-0.028	1.519	1.348	0.012	1.512	1.346	0.271	1.192	1.391	0.362	0.915	1.446	0.446	0.739	1.515	0.449	0.667	1.534	0.036	0.755	1.452	-0.024	0.462	1.515	-0.016	0.296	1.565	-0.001	0.283	1.520	0.176	0.745	1.445	0.267	0.468	1.526	0.190	0.279	1.592	0.151	0.279	1.545	0.110	1.240	1.410	0.049	1.542	1.368	0.037	1.475	1.283	0.435	0.566	1.569	0.432	0.607	1.494
526	27.789	0.112	0.742	1.482	0.105	1.032	1.444	0.109	1.307	1.395	0.102	1.450	1.368	-0.040	1.252	1.393	-0.170	1.392	1.317	-0.028	1.517	1.352	0.010	1.510	1.349	0.268	1.190	1.390	0.324	0.899	1.434	0.400	0.723	1.505	0.385	0.651	1.520	0.040	0.753	1.453	-0.022	0.461	1.515	-0.015	0.296	1.565	-0.001	0.283	1.520	0.179	0.743	1.445	0.267	0.466	1.529	0.190	0.279	1.593	0.151	0.279	1.545	0.109	1.240	1.410	0.050	1.533	1.356	0.037	1.475	1.283	0.361	0.553	1.549	0.337	0.602	1.461
527	27.806	0.112	0.742	1.482	0.105	1.032	1.444	0.109	1.307	1.395	0.102	1.450	1.368	-0.040	1.252	1.393	-0.170	1.392	1.317	-0.028	1.517	1.352	0.010	1.510	1.349	0.268	1.190	1.390	0.324	0.899	1.434	0.400	0.723	1.505	0.385	0.651	1.520	0.040	0.753	1.453	-0.022	0.461	1.515	-0.015	0.296	1.565	-0.001	0.283	1.520	0.179	0.743	1.445	0.267	0.466	1.529	0.190	0.279	1.593	0.151	0.279	1.545	0.109	1.240	1.410	0.050	1.533	1.356	0.037	1.475	1.283	0.361	0.553	1.549	0.337	0.602	1.461
528	27.822	0.116	0.740	1.484	0.106	1.032	1.445	0.108	1.307	1.395	0.101	1.450	1.368	-0.042	1.251	1.392	-0.170	1.392	1.315	-0.028	1.514	1.356	0.009	1.507	1.351	0.266	1.188	1.389	0.310	0.897	1.429	0.376	0.724	1.492	0.349	0.664	1.493	0.044	0.750	1.454	-0.021	0.459	1.516	-0.015	0.296	1.564	0.000	0.283	1.520	0.183	0.741	1.446	0.264	0.463	1.532	0.189	0.280	1.594	0.151	0.279	1.545	0.109	1.240	1.410	0.043	1.530	1.359	0.036	1.475	1.284	0.322	0.567	1.515	0.286	0.642	1.441
529	27.839	0.116	0.740	1.484	0.106	1.032	1.445	0.108	1.307	1.395	0.101	1.450	1.368	-0.042	1.251	1.392	-0.170	1.392	1.315	-0.028	1.514	1.356	0.009	1.507	1.351	0.266	1.188	1.389	0.310	0.897	1.429	0.376	0.724	1.492	0.349	0.664	1.493	0.044	0.750	1.454	-0.021	0.459	1.516	-0.015	0.296	1.564	0.000	0.283	1.520	0.183	0.741	1.446	0.264	0.463	1.532	0.189	0.280	1.594	0.151	0.279	1.545	0.109	1.240	1.410	0.043	1.530	1.359	0.036	1.475	1.284	0.322	0.567	1.515	0.286	0.642	1.441
530	27.856	0.120	0.738	1.484	0.108	1.031	1.445	0.107	1.307	1.395	0.100	1.450	1.368	-0.042	1.251	1.392	-0.169	1.391	1.315	-0.028	1.511	1.360	0.008	1.506	1.352	0.264	1.187	1.387	0.305	0.900	1.425	0.375	0.734	1.490	0.388	0.704	1.501	0.048	0.748	1.456	-0.020	0.458	1.516	-0.014	0.296	1.564	0.001	0.283	1.520	0.187	0.740	1.447	0.230	0.450	1.529	0.181	0.286	1.590	0.152	0.278	1.546	0.109	1.240	1.410	0.044	1.529	1.364	0.035	1.474	1.287	0.358	0.613	1.507	0.343	0.684	1.452
531	27.872	0.120	0.738	1.484	0.108	1.031	1.445	0.107	1.307	1.395	0.100	1.450	1.368	-0.042	1.251	1.392	-0.169	1.391	1.315	-0.028	1.511	1.360	0.008	1.506	1.352	0.264	1.187	1.387	0.305	0.900	1.425	0.375	0.734	1.490	0.388	0.704	1.501	0.048	0.748	1.456	-0.020	0.458	1.516	-0.014	0.296	1.564	0.001	0.283	1.520	0.187	0.740	1.447	0.230	0.450	1.529	0.181	0.286	1.590	0.152	0.278	1.546	0.109	1.240	1.410	0.044	1.529	1.364	0.035	1.474	1.287	0.358	0.613	1.507	0.343	0.684	1.452
532	27.889	0.120	0.738	1.484	0.108	1.031	1.445	0.107	1.307	1.395	0.100	1.450	1.368	-0.042	1.251	1.392	-0.169	1.391	1.315	-0.028	1.511	1.360	0.008	1.506	1.352	0.264	1.187	1.387	0.305	0.900	1.425	0.375	0.734	1.490	0.388	0.704	1.501	0.048	0.748	1.456	-0.020	0.458	1.516	-0.014	0.296	1.564	0.001	0.283	1.520	0.187	0.740	1.447	0.230	0.450	1.529	0.181	0.286	1.590	0.152	0.278	1.546	0.109	1.240	1.410	0.044	1.529	1.364	0.035	1.474	1.287	0.358	0.613	1.507	0.343	0.684	1.452
533	27.906	0.120	0.738	1.484	0.108	1.031	1.445	0.107	1.307	1.395	0.100	1.450	1.368	-0.042	1.251	1.392	-0.169	1.391	1.315	-0.028	1.511	1.360	0.008	1.506	1.352	0.264	1.187	1.387	0.305	0.900	1.425	0.375	0.734	1.490	0.388	0.704	1.501	0.048	0.748	1.456	-0.020	0.458	1.516	-0.014	0.296	1.564	0.001	0.283	1.520	0.187	0.740	1.447	0.230	0.450	1.529	0.181	0.286	1.590	0.152	0.278	1.546	0.109	1.240	1.410	0.044	1.529	1.364	0.035	1.474	1.287	0.358	0.613	1.507	0.343	0.684	1.452
534	27.922	0.123	0.736	1.485	0.109	1.030	1.446	0.107	1.306	1.395	0.099	1.449	1.368	-0.042	1.250	1.391	-0.169	1.390	1.315	-0.027	1.508	1.365	0.007	1.504	1.354	0.262	1.186	1.387	0.317	0.915	1.428	0.421	0.762	1.495	0.433	0.703	1.512	0.050	0.746	1.456	-0.020	0.457	1.516	-0.014	0.296	1.564	0.001	0.284	1.520	0.190	0.738	1.447	0.212	0.444	1.526	0.176	0.288	1.587	0.152	0.278	1.546	0.109	1.239	1.410	0.053	1.524	1.351	0.033	1.471	1.289	0.403	0.632	1.522	0.400	0.673	1.466
